inDegrees=yes
name=ik_appendData_table_yaw
DataType=double
version=3
OpenSimVersion=4.5
endheader
time	pelvis_tilt	pelvis_list	pelvis_rotation	pelvis_tx	pelvis_ty	pelvis_tz	hip_flexion_r	hip_adduction_r	hip_rotation_r	knee_angle_r	knee_angle_r_beta	ankle_angle_r	subtalar_angle_r	mtp_angle_r	hip_flexion_l	hip_adduction_l	hip_rotation_l	knee_angle_l	knee_angle_l_beta	ankle_angle_l	subtalar_angle_l	mtp_angle_l	lumbar_extension	lumbar_bending	lumbar_rotation	arm_flex_r	arm_add_r	arm_rot_r	elbow_flex_r	pro_sup_r	wrist_flex_r	wrist_dev_r	arm_flex_l	arm_add_l	arm_rot_l	elbow_flex_l	pro_sup_l	wrist_flex_l	wrist_dev_l
0	-0.1962012131663686	89.65413380228416	0.1963074300600264	0	0.9399999999999999	0	44.52190838381924	-10.08383735537346	0	59.93843514374213	1.046123041751381	-5.013226887003177	0	0	44.52190838381924	-10.08383735537346	0	59.93843514374213	1.046123041751381	-5.013226887003177	0	0	-0.001475532297145552	0.3449243926057982	-0.0001710417847513904	0	-12.10964336643332	0	76.36938724981573	44.88914410045815	0	0	-0.2373999225688908	-0.0553610011201653	-0.005549577042125622	0.4873563737294111	44.88914410045815	0	0
1	-0.1965311069621835	89.65325350635676	0.1959315952744219	0	0.9399999999999999	0	44.52201977133037	-10.08376881848498	0	59.93844638606672	1.04612323796696	-5.01321277132798	0	0	44.52201977133037	-10.08376881848498	0	59.93844638606672	1.04612323796696	-5.01321277132798	0	0	0.0002891738842397068	0.3469074692119782	-0.000414954868972978	0	-12.10998745437582	0	76.36906815442721	44.88921573537302	0	0	-0.237999018836122	-0.05336769019807731	-0.005228955583537953	0.4861922331440872	44.88921573537302	0	0
2	-0.1972126055401642	89.64772273009258	0.1952378034746715	0	0.9399999999999999	0	44.52210190951052	-10.08371834026631	0	59.93845468068583	1.046123382735374	-5.013202378896227	0	0	44.52210190951052	-10.08371834026631	0	59.93845468068583	1.046123382735374	-5.013202378896227	0	0	0.002672056417529758	0.361664031289093	-0.0009803691771612573	0	-12.11024130249326	0	76.36883285065328	44.88926851048738	0	0	-0.2429226757082916	-0.0418878330572898	-0.004872200025419064	0.4847819955099917	44.88926851048738	0	0
3	-0.1957204310841875	89.64205675313463	0.1967309089449632	0	0.9399999999999999	0	44.52216031424401	-10.08368249891396	0	59.93846058290268	1.046123485748491	-5.013195002929621	0	0	44.52216031424401	-10.08368249891396	0	59.93846058290268	1.046123485748491	-5.013195002929621	0	0	0.006015255047989832	0.3928886250890234	0.0003743037988100973	0	-12.11042190677711	0	76.3686655369126	44.88930599479043	0	0	-0.2481718477806676	-0.01164670166071372	-0.005875910323800845	0.4928598108360785	44.88930599479043	0	0
4	-0.7660786212360199	89.66461115511571	-0.3728849512404934	0	0.9399999999999999	0	44.52229911561024	-10.0835981852287	0	59.9384747308184	1.046123732676203	-5.013177683804874	0	0	44.52229911561024	-10.0835981852287	0	59.9384747308184	1.046123732676203	-5.013177683804874	0	0	-0.002879681184228206	0.3398668289737182	1.140375956022246	0	-12.11085377336528	0	76.36826791068077	44.88939432631859	0	0	-1.19919856837071	-0.1260703590142218	-0.01794665402489346	1.289644129844686	44.88939432631859	0	0
5	-0.7602058968136925	89.66695708793887	-0.3681356206658684	0	0.9399999999999999	0	44.52244375206076	-10.08351001556398	0	59.93848941287839	1.046123988926491	-5.013159567441659	0	0	44.52244375206076	-10.08351001556398	0	59.93848941287839	1.046123988926491	-5.013159567441659	0	0	0.002468348736055214	0.3331242370725267	1.128314743544523	0	-12.11130253590241	0	76.36785356770876	44.88948665926275	0	0	-1.067171689935326	0.4714102987594609	-0.01869228851154975	1.042693820280099	44.88948665926275	0	0
6	-0.7519323751381946	89.66050451678187	-0.3610753554296534	0	0.9399999999999999	0	44.52303718446007	-10.08322988278147	0	59.93856055606058	1.04612523060926	-5.013105173373207	0	0	44.52303718446007	-10.08322988278147	0	59.93856055606058	1.04612523060926	-5.013105173373207	0	0	-0.01274866648311523	0.3334736934302375	1.123665546557714	0	-12.11338573264797	0	76.36615373910242	44.88979489716544	0	0	-0.03536022533334377	-0.01656661875469781	1.725479798891742	0.3260180955066412	44.88979489716544	0	0
7	-0.7319284377186172	89.66425491282708	-0.3972412688503233	0	0.9399999999999999	0	44.54342634349837	-10.07266561184761	0	59.94064055849486	1.046161533500188	-5.011060966330102	0	0	44.54342634349837	-10.07266561184761	0	59.94064055849486	1.046161533500188	-5.011060966330102	0	0	-0.006635570095732311	0.339044716497737	1.130464421385961	0	-12.17907418049883	0	76.30774814914726	44.9013543209476	0	0	0.6169134713534263	0.6098342914641702	3.426772444565478	0.1183675182041711	44.9013543209476	0	0
8	-0.7317829768909354	89.66622020142829	-0.3963510075126089	0	0.9399999999999999	0	44.54479943839797	-10.07212455784835	0	59.94081478295654	1.046164574290682	-5.010961690334145	0	0	44.54479943839797	-10.07212455784835	0	59.94081478295654	1.046164574290682	-5.010961690334145	0	0	-0.003416221599749262	0.3339964023513508	1.126881687126988	0	-12.18416974518776	0	76.30381527309164	44.90197636817837	0	0	1.183822283557963	-0.4908088153231081	5.734592132638427	0.09103129792272104	44.90197636817837	0	0
9	-0.731421980652988	89.66575339708729	-0.3934356828985	0	0.9399999999999999	0	44.54645940624372	-10.07148361274694	0	59.94102800804064	1.046168295770447	-5.010844613948778	0	0	44.54645940624372	-10.07148361274694	0	59.94102800804064	1.046168295770447	-5.010844613948778	0	0	0.0007082489103922311	0.3332657496239126	1.122323315902969	0	-12.19038372346662	0	76.29906076048567	44.90271623056737	0	0	1.186118632465166	-1.007009538728534	9.220726404302834	0.09562182827066656	44.90271623056737	0	0
10	-1.293888784373358	89.6725441600187	-0.9577336460431192	0	0.9399999999999999	0	44.54793048322924	-10.07091564743851	0	59.94121668961311	1.046171588885125	-5.010740877157439	0	0	44.54793048322924	-10.07091564743851	0	59.94121668961311	1.046171588885125	-5.010740877157439	0	0	-0.007081122288488998	0.3281390764231517	2.251657273586865	0	-12.195890234955	0	76.29484727261261	44.90337188097243	0	0	1.771840467870552	-0.8953077237908861	12.72455605064322	0.06343727381661685	44.90337188097243	0	0
11	-1.296199500029164	89.68400724644242	-0.9608993311035986	0	0.9399999999999999	0	44.54954294479893	-10.07029144883604	0	59.94142295257722	1.046175188852973	-5.010626796968907	0	0	44.54954294479893	-10.07029144883604	0	59.94142295257722	1.046175188852973	-5.010626796968907	0	0	-0.005095950058978849	0.3229784209650173	2.254663527666752	0	-12.20191952715794	0	76.29022882404371	44.90409204930948	0	0	2.071725975836308	0.376154322253685	16.17848273139845	0.04802808471676413	44.90409204930948	0	0
12	-1.301145159193354	89.67864089781605	-0.9511335449753586	0	0.9399999999999999	0	44.55094265579342	-10.06975525577433	0	59.94160252337598	1.046178322954652	-5.010529112141441	0	0	44.55094265579342	-10.06975525577433	0	59.94160252337598	1.046178322954652	-5.010529112141441	0	0	-0.0009994066605563492	0.3232354378135808	2.249047416211606	0	-12.20717124358019	0	76.28621975269837	44.90471221892402	0	0	1.296776993140713	1.510841141533011	19.2269220035577	0.0525794233249714	44.90471221892402	0	0
13	-1.302575982330265	89.6752250442018	-0.9485835968773614	0	0.9399999999999999	0	44.55224246727313	-10.0692607753809	0	59.94176920144244	1.046181232035703	-5.010439271377296	0	0	44.55224246727313	-10.0692607753809	0	59.94176920144244	1.046181232035703	-5.010439271377296	0	0	-0.008532670629300234	0.3221067520299112	2.24996774273611	0	-12.21205537240338	0	76.28249681999667	44.90528525268536	0	0	1.323199562068892	0.9802423462851334	22.33902021234272	0.05498064531904044	44.90528525268536	0	0
14	-1.346944263076892	89.75548491243806	-0.9123646089781885	0	0.9399999999999999	0	44.55442583147888	-10.06843866474019	0	59.94204888938339	1.04618611351115	-5.010290570848155	0	0	44.55442583147888	-10.06843866474019	0	59.94204888938339	1.04618611351115	-5.010290570848155	0	0	-0.004015511805579014	0.2395488325430662	2.25491737514181	0	-12.22027366452736	0	76.27624321771188	44.90624089654256	0	0	2.402945359555745	-1.094198767317979	26.53099361143104	0.04566699830514145	44.90624089654256	0	0
15	-1.383963238045116	89.75603628958439	-0.8785860349329632	0	0.9399999999999999	0	44.55570159666695	-10.06795820105886	0	59.94221239709503	1.046188967259071	-5.010203586783038	0	0	44.55570159666695	-10.06795820105886	0	59.94221239709503	1.046188967259071	-5.010203586783038	0	0	-0.0062166978067257	0.2403409533670751	2.260231523167989	0	-12.22508001841034	0	76.27258916733037	44.90679915225976	0	-2.084489645008535e-35	2.548361028596124	-1.616902658083	29.87579598106481	0.04688277275916616	44.90679915225976	0	-2.084489645008535e-35
16	-1.929926437375969	89.68731963969049	-1.424686797487745	0	0.9399999999999999	0	44.55700488264114	-10.06747156934754	0	59.94237996200696	1.046191891818495	-5.010115695001292	0	0	44.55700488264114	-10.06747156934754	0	59.94237996200696	1.046191891818495	-5.010115695001292	0	0	-0.01132611884384898	0.3339330229142494	3.338533870251515	0	-12.23000522815173	0	76.26885630179649	44.90736566404061	0	0	3.149798522230121	-1.347937698324074	33.69854363424669	0.03707785144872464	44.90736566404061	0	0
17	-1.938704541729568	89.68820592489483	-1.432222911509764	0	0.9399999999999999	0	44.55835768970782	-10.0669637925109	0	59.94255305751419	1.046194912905017	-5.010023885833679	0	0	44.55835768970782	-10.0669637925109	0	59.94255305751419	1.046194912905017	-5.010023885833679	0	0	-0.01005856481416282	0.3088779427784886	3.367683410521421	0	-12.23510550483989	0	76.26498159056501	44.90795620222278	0	0	3.937592894346532	-1.707059526675762	37.38481515604305	0.03178011316918754	44.90795620222278	0	0
18	-1.941006591818783	89.68778579034436	-1.429338631017074	0	0.9399999999999999	0	44.55940355779448	-10.06655838547688	0	59.94268473590374	1.046197211126468	-5.00994993421658	0	0	44.55940355779448	-10.06655838547688	0	59.94268473590374	1.046197211126468	-5.00994993421658	0	0	-0.007685162126529697	0.312441270568221	3.368057892571633	0	-12.2390028906723	0	76.26198598501546	44.90842430302703	0	0	3.949070335330852	-1.602062976620268	40.70143548804571	0.03114383198481923	44.90842430302703	0	0
19	-1.94378591904419	89.68397147066308	-1.427444168108915	0	0.9399999999999999	0	44.56045351299246	-10.06615972028236	0	59.9428180053294	1.046199537116738	-5.009877644539239	0	0	44.56045351299246	-10.06615972028236	0	59.9428180053294	1.046199537116738	-5.009877644539239	0	0	0.003448900515317197	0.2940992472078812	2.235360306474053	0	-12.24294359426115	0	76.25897869128585	44.90888681128072	0	0	3.760983144970941	-1.04799857448443	42.78298642188142	0.02911901853339617	44.90888681128072	0	0
20	-1.951294802198687	89.68747181081596	-1.418878382502605	0	0.9399999999999999	0	44.56203317020369	-10.0655793395779	0	59.94302101789366	1.046203080354407	-5.009773434517585	0	0	44.56203317020369	-10.0655793395779	0	59.94302101789366	1.046203080354407	-5.009773434517585	0	0	0.01124270677468482	0.3007857968268229	2.225736728342069	0	-12.24893749712588	0	76.25445426082237	44.90956536119986	0	0	1.933815958040021	0.3540809108859714	46.38665877625491	0.03464810342750329	44.90956536119986	0	0
21	-1.700154667882023	89.6879791308361	-1.675543367596838	0	0.9399999999999999	0	44.58107974779976	-10.0570858781236	0	59.94496706710629	1.046237045320573	-5.00821924896055	0	0	44.58107974779976	-10.0570858781236	0	59.94496706710629	1.046237045320573	-5.00821924896055	0	0	0.007799102097996242	0.2973465434035906	2.237312049166237	0	-12.31233913373497	0	76.19989719439637	44.91924662860993	0	0	1.69310309502908	0.962975468628286	48.41824430900826	0.03246418154753061	44.91924662860993	0	0
22	-2.25659998302921	89.69070627567817	-2.232193250913065	0	0.9399999999999999	0	44.5812010676767	-10.05702851270848	0	59.94497968094722	1.046237265473629	-5.008208488152679	0	0	44.5812010676767	-10.05702851270848	0	59.94497968094722	1.046237265473629	-5.008208488152679	0	0	0.001821137417030315	0.2954506496314157	3.340851363337566	0	-12.3127394929586	0	76.19954967881256	44.91931089440535	0	0	1.467900396646083	1.553533736283381	48.40220055423949	0.03103583534522387	44.91931089440535	0	0
23	-2.2550900668882	89.68803559917897	-2.231949005176147	0	0.9399999999999999	0	44.58124628490062	-10.05700696552846	0	59.94498434742252	1.046237346918987	-5.008204441709196	0	0	44.58124628490062	-10.05700696552846	0	59.94498434742252	1.046237346918987	-5.008204441709196	0	0	0.0117938392202769	0.3404451739819525	3.343108273385624	0	-12.31288793730539	0	76.19942015559472	44.9193350052398	0	0	1.44839936780197	1.602304488052743	48.40165135592399	0.03104309606270134	44.9193350052398	0	0
